<?xml version="1.0" encoding="UTF-8" standalone="yes"?>
<svg xmlns="http://www.w3.org/2000/svg" xmlns:xlink="http://www.w3.org/1999/xlink" version="1.1" baseProfile="full" viewBox="68 43 268 315" preserveAspectRatio="xMidYMid meet">
    <defs>
        <!--- Body, rear legs, tail -->
        <path id="rearBody" d="m 202.53551,180.74575 -89.24156,26.39271 c -3.12436,14.74919 -8.06574,30.04401 -9.61239,45.37683 -1.31645,13.05081 -2.40165,26.50798 0.24476,39.35538 1.60432,7.78843 9.29274,21.96953 9.29274,21.96953 l 2.85885,5.10294 c 0,0 -29.430696,11.50943 -25.287956,24.08232 2.33888,7.09829 25.045136,0.42089 31.770146,-1.7302 1.02986,-0.3294 28.97913,-1.09893 36.11058,-1.77789 0.74573,-0.0708 5.07801,0.22184 6.87126,0.39134 0.53201,0.0502 16.22551,-1.28414 23.74242,-1.9287 1.96955,-0.16882 6.7843,-0.44273 8.26111,-0.53216 0.21123,-0.0115 3.06211,3.57114 4.95849,4.92364 2.7105,1.93315 5.76187,3.49049 8.9619,4.409 1.9009,0.54563 3.94116,0.85861 5.90225,0.60315 1.52235,-0.19834 3.12701,-0.64657 4.30894,-1.6263 0.99707,-0.82648 1.66992,-1.82108 2.02223,-3.31743 0.32361,-1.37443 -0.67394,-4.73227 -1.4206,-6.15485 -0.12468,-0.2376 -3.7008,-7.00141 -5.57133,-9.45298 -0.3928,-0.51479 5.46331,-2.50236 8.27862,-4.71315 8.16902,-6.41492 10.59981,-12.52445 10.59981,-12.52445 0,0 10.8009,0.78082 16.02603,-0.3362 10.11749,-2.16289 19.84514,-6.55739 28.58529,-12.0938 9.76651,-6.18658 18.86725,-13.90352 25.86677,-23.10489 6.61509,-8.69601 11.42534,-18.90832 14.5195,-29.38718 3.73497,-12.64912 6.71311,-26.29319 4.55337,-39.30419 -2.11455,-12.7386 -9.01198,-24.56684 -16.65179,-34.97725 -7.4301,-10.12464 -21.24436,-14.81661 -27.59396,-25.65161 -3.90811,-6.66886 -6.7937,-14.91741 -5.47379,-22.53349 1.56542,-9.0325 6.95355,-18.78935 15.10617,-22.981155 8.92126,-4.58701 21.10833,5.692945 30.07081,1.187015 7.12956,-4.549335 7.71568,-17.317255 3.91625,-22.732766 -6.08631,-8.21304 -17.81575,-11.459908 -27.97928,-12.555286 -9.31997,-1.004435 -19.36704,1.157745 -27.52099,5.781986 -9.73578,5.52134 -16.98107,15.091231 -22.79149,24.657311 -5.26956,8.675605 -9.26706,18.555045 -10.31558,28.651335 -0.98715,9.50552 0.59532,19.45076 3.96171,28.39487 3.12236,8.29573 8.64895,15.65655 14.6025,22.22337 6.80775,7.50906 17.19527,11.29373 23.65845,19.10136 5.13834,6.20718 9.41363,13.50621 11.40599,21.31403 2.07173,8.11889 1.46331,16.85162 0.20923,25.13628 -1.34278,8.87028 -3.53124,17.96778 -8.17956,25.64098 -4.27228,7.05252 -10.39365,13.23903 -17.40616,17.57666 -4.74771,2.93675 -15.90997,5.23072 -15.90997,5.23072 0,0 -7.62316,1.52008 -8.33643,1.60394 -0.27314,0.0321 0.26884,-10.07812 -0.21725,-15.08264 -0.33554,-3.45601 -1.11756,-6.85727 -1.85648,-10.25 -0.71329,-3.27498 -1.65046,-6.49717 -2.48505,-9.74335 -0.57045,-2.21882 -1.05623,-4.46168 -1.72409,-6.65312 -3.03177,-9.94777 -6.41856,-19.80382 -10.34794,-29.43238 -2.11044,-5.17142 -4.55465,-10.2056 -7.0894,-15.18281 -1.99755,-3.92236 -4.17148,-7.75446 -6.39141,-11.55538 -1.77167,-3.03337 -5.05245,-8.27873 -6.51933,-10.61251 -0.46062,-0.73284 -0.96036,-1.40088 -0.96036,-1.40088" />
        <!-- Head, neck, front legs -->
        <path id="frontBody" d="m 172.24495,278.02372 c 0.31188,-0.59838 3.60806,-18.94951 3.71621,-20.05429 0.12216,-1.24687 -0.009,-2.57736 -0.66636,-3.45213 -2.91607,-3.87463 -8.72723,-7.59163 -14.01789,-7.45558 -5.20216,0.1338 -10.88654,3.46648 -13.38848,8.02948 -1.02962,1.87784 0.0887,5.85687 0.17657,6.42233 1.77541,11.45207 12.32402,56.04099 11.89126,66.98772 -0.49187,12.44136 -0.91595,16.13024 -2.96785,19.06111 -2.05195,2.93083 -5.56664,3.32038 -7.13466,1.98879 -3.4905,-2.70481 -2.65377,-4.38375 -2.27404,-7.43746 -0.37973,3.05371 -0.42515,6.05679 -2.64522,7.51283 -1.86853,1.22547 -4.61267,2.2261 -6.68656,-0.47756 -2.67115,-3.48232 -1.39693,-4.69033 -1.01601,-7.7372 -0.38092,3.04687 -1.76871,5.54354 -4.00226,6.81619 -1.34216,0.76459 -3.0786,0.88844 -4.86894,0.38767 -1.18939,-0.33269 -0.99973,-0.39179 -1.73344,-1.27119 -1.63797,-2.21883 -1.12772,-3.46824 -0.84597,-5.20244 0.38998,-2.40012 2.77068,-5.52776 3.39015,-6.45925 2.58369,-2.7613 3.6931,-3.51174 5.64552,-4.80305 l 1.95358,-1.29016 c -7.75646,-31.13159 -27.22234,-93.01574 -23.93092,-119.6282 0.039,-0.31431 1.67274,-9.48576 2.10547,-10.55329 1.33777,-3.30026 1.53123,-5.86377 2.6252,-8.68248 1.71786,-4.42624 6.39607,-13.43033 8.61315,-17.7608 0.66804,-1.30479 2.19614,-6.44482 2.43513,-8.0084 0.16668,-1.08954 0.46083,-3.01757 0.3412,-5.20182 -0.14399,-2.62756 -0.77502,-5.62592 -1.46645,-7.98159 -1.66567,-5.67479 -6.04745,-11.38847 -8.82295,-17.12097 -0.0547,-0.11285 -2.65557,-4.48125 -4.97605,-9.806 -2.07392,-4.75899 -3.58256,-10.25675 -4.61017,-14.21372 -1.58869,-6.1174 -2.37768,-11.000223 -2.9315,-16.347813 -0.70966,-6.852417 -0.38345,-18.958921 0.85714,-27.009086 0.58344,-3.785925 -0.16058,1.121661 0,0 0.34322,-1.811548 0.53979,-7.370831 2.86838,-11.934695 2.13756,-4.189424 6.39113,-7.476129 7.32237,-7.631425 1.68366,-0.171033 2.7552,1.308428 4.10348,2.989579 2.07534,2.587682 2.13561,5.472226 4.05592,9.251696 2.00349,3.943115 4.64543,11.466684 4.64543,11.466684 0,0 16.52741,-5.6681 25.17406,-5.928779 1.9964,-0.06021 7.7174,0.581888 13.26151,1.965449 6.48706,1.618874 12.55257,3.96333 12.55257,3.96333 1.92127,-4.354901 4.82983,-22.90873 15.10126,-24.096476 3.49495,-0.155035 5.6962,3.828482 7.20199,7.633984 2.05155,5.184758 2.8067,11.178605 2.86669,12.167423 0.22978,3.788835 0.22803,12.614784 0.16404,26.947043 -0.0145,3.014678 -0.22426,4.425381 -0.42341,6.631316 -0.4661,5.1612 -0.72195,11.23523 -1.80495,15.44143 -1.80702,7.01808 -8.05771,18.51236 -8.47234,19.59877 -0.25102,0.65769 -3.20659,7.87817 -3.25253,12.53162 -0.0402,4.07695 1.84523,9.92833 3.10459,13.67352 0.17861,0.53114 1.77991,4.15746 4.15498,8.76245 1.32436,2.56768 3.01739,5.83222 4.59555,8.78177 0.30082,0.56229 0.59751,1.11314 0.88663,1.64552 0.73315,1.34994 6.18457,12.74314 7.50917,19.61908 1.58105,8.20712 1.09106,16.74372 0.37791,25.07128 -1.03658,12.10451 -2.70985,20.12066 -6.7375,35.81828 -0.18121,0.75759 -3.04161,13.90774 -6.3875,27.67629 -3.24689,13.36093 -7.10676,27.41033 -8.53953,32.3977 -0.25712,0.89532 -1.38317,5.84617 -1.92004,7.8381 -0.13176,0.48906 6.27247,3.85998 8.51366,6.68867 1.45591,1.83752 2.57442,4.06598 2.9651,6.37756 0.24839,1.47062 0.34106,3.18635 -0.44819,4.45188 -0.85316,1.36799 -2.50583,2.72762 -4.1085,2.55219 -4.69755,-0.51417 -6.52515,-7.28118 -6.52515,-7.28118 0,0 2.14826,6.74573 -1.84168,8.65652 -1.42402,0.68194 -3.9128,0.47142 -4.86426,-0.0632 -4.59789,-2.58328 -2.98757,-7.66268 -3.71143,-7.66268 0,0 0.2004,6.82749 -4.26199,8.01994 -2.30312,0.61546 -3.9274,-0.94773 -5.27196,-2.31787 -1.89491,-1.93104 -3.16618,-7.38983 -3.12594,-7.49035 l -0.83213,-13.95213 c -0.49352,-16.58295 3.78616,-33.14964 6.33912,-49.51201" />
        <!-- Vibrissas -->
        <g id="vibrissas">
            <!-- Left top -->
            <path d="m 143.26062,121.81715 c 0,0 -12.04767,-8.00972 -18.97886,-9.00903 -4.81691,-0.69448 -9.55614,2.41469 -14.42099,2.28014 -4.77493,-0.13207 -9.80686,-0.74567 -14.009076,-3.01696 C 90.654059,109.262 83.237409,99.61948 83.237409,99.61948" />
            <!-- Left middle -->
            <path d="m 144.45571,125.589 c 0,0 -14.53141,-6.65583 -22.33804,-7.28355 -6.74001,-0.54195 -13.36467,4.18514 -20.04297,3.12603 C 92.704412,119.94544 76.689464,108.5596 76.689464,108.5596" />
            <!-- Left bottom -->
            <path d="m 134.99655,125.3875 c 0,0 -8.73706,-1.60113 -13.12712,-1.33328 -6.00275,0.36624 -11.58093,4.04315 -17.59462,3.99168 -11.095628,-0.095 -32.332341,-7.91944 -32.332341,-7.91944" />
            <!-- Right top -->
            <path d="m 163.2108,124.01241 c 0,0 7.88119,-6.53141 12.70367,-7.44023 6.40885,-1.20777 12.88204,4.08425 19.32348,3.06453 5.03166,-0.79653 9.35684,-4.14536 13.61688,-6.93894 3.56549,-2.33812 9.86889,-8.13763 9.86889,-8.13763" />
            <!-- Right middle -->
            <path d="m 167.54709,124.74346 c 0,0 6.94772,-2.4331 10.57207,-2.57716 6.96018,-0.27665 13.71024,4.10954 20.63127,3.32214 9.84934,-1.12055 27.5481,-11.20216 27.5481,-11.20216" />
            <!-- Right bottom -->
            <path d="m 171.07486,127.75547 c 0,0 6.54715,-0.30511 9.79342,0.0394 7.68695,0.81578 15.02854,5.77985 22.69321,4.77608 9.61608,-1.25932 25.96776,-13.12135 25.96776,-13.12135" />
        </g>
        <!-- Space gradient for rear body -->
        <linearGradient id="linearGradient" x1="0" x2="0" y1="0" y2="1">
            <stop offset="0%"  stop-color="orangered" />
            <stop offset="20%" stop-color="greenyellow" />
            <stop offset="40%" stop-color="teal" />
            <stop offset="60%" stop-color="#39E639" />
            <stop offset="80%" stop-color="blueviolet" />
            <stop offset="100%" stop-color="aqua" />
        </linearGradient>
        <!-- Space gradient for front body -->
        <radialGradient id="radialGradient" cx="0.5" cy="0.5" r="0.59" fx="0.43" fy="0.14" >
            <stop offset="0%"  stop-color="#CCAF1E" />
            <stop offset="10%" stop-color="#CCCC1E" />
            <stop offset="20%" stop-color="#99B21A" />
            <stop offset="30%" stop-color="#59B21A" />
            <stop offset="40%" stop-color="#1AB21A" />
            <stop offset="50%" stop-color="#1AB259" />
            <stop offset="60%" stop-color="#1AB299" />
            <stop offset="70%" stop-color="#1A8CB2" />
            <stop offset="80%" stop-color="#1A4DB2" />
            <stop offset="90%" stop-color="#271AB2" />
            <stop offset="100%" stop-color="#661AB2" />
        </radialGradient>
    </defs>
    <!-- White outline -->
    <g fill="none" stroke="white" stroke-width="4.7" stroke-linecap="round" stroke-linejoin="miter">
        <use xlink:href="#rearBody" />
        <use xlink:href="#frontBody" />
    </g>
    <!-- Body, fill white, gray, red, green, blue -->
    <g stroke="black" stroke-width="4" stroke-linecap="round" stroke-linejoin="miter">
        <use xlink:href="#rearBody" fill="url(#linearGradient)" />
        <use xlink:href="#frontBody" fill="url(#radialGradient)" />
    </g>
    <!-- Vibrissas outline -->
    <use xlink:href="#vibrissas" fill="none" stroke="white" stroke-width="4.1" stroke-linecap="round" stroke-linejoin="round" />
    <!-- Vibrissas -->
    <use xlink:href="#vibrissas" fill="none" stroke="black" stroke-width="4" stroke-linecap="round" stroke-linejoin="round" />
    <!-- Face lines -->
    <g stroke="black" stroke-width="4" stroke-linecap="round" stroke-linejoin="round">
        <!-- Brows and nose -->
        <path fill="none" d="m 115.79673,98.76474 c 0,0 10.14101,-6.961906 13.41847,-7.634436 2.47124,-0.507087 5.87138,-0.518477 8.19278,0.383882 1.74878,0.679755 3.11192,1.885777 4.56917,3.310013 1.24757,1.219293 2.68654,2.960543 3.61341,4.72246 1.0574,2.009981 1.51975,3.975521 1.51975,3.975521 l 0.70819,14.42454 4.46144,2.51596 6.08009,-2.23676 1.47412,-16.34672 c 0,0 2.96029,-5.152973 4.88581,-6.47596 3.00392,-2.063927 5.30867,-4.305716 8.36498,-4.356805 1.92334,-0.03205 4.1354,0.471093 5.94228,0.819407 2.63543,0.508017 4.34726,2.241015 5.8919,3.48522 3.09845,2.495855 6.12274,5.700558 6.12274,5.700558"/>
        <!-- Nose -->
        <path fill="#B43257" d="m 147.8185,117.94672 6.15737,2.61905 4.42993,-1.96645 -0.12373,5.33342 -4.55396,3.18698 -6.32296,-3.45668 z" />
        <!-- Mouth -->
        <path fill="none" d="m 137.13126,131.0288 c 0,0 4.445,4.4111 7.32535,4.63023 3.01346,0.22926 8.3085,-3.62905 8.3085,-3.62905 l 0.963,-4.91026 0.0697,5.01621 c 0,0 6.25056,3.99345 9.67593,3.62904 2.79016,-0.29683 7.08328,-4.54809 7.08328,-4.54809" />
        <!-- Left eye -->
        <path fill="#B8DB55" d="m 121.75074,95.179792 c 0,0 1.25016,4.730968 2.80501,7.306068 1.44225,2.38871 4.25715,4.77362 6.63465,5.60806 3.61234,1.26773 6.84733,1.10522 10.3745,-0.4631 1.09862,-0.48853 5.51016,-2.22296 5.54341,-3.97661 l 0.002,-0.13203 c 0,0 -1.41943,-4.292969 -2.67831,-5.990957 -1.88481,-2.542189 -4.31237,-4.695646 -6.99155,-5.869455 -1.67945,-0.73581 -5.99587,-0.913299 -8.89952,-0.191141 -2.43953,0.606777 -6.7907,3.709261 -6.7907,3.709261" />
        <!-- Right eye -->
        <path fill="#B8DB55" d="m 186.3517,96.960281 c 0,0 -1.9615,4.167939 -3.83868,6.287999 -1.74133,1.9666 -4.75289,3.69643 -7.09601,4.065 -3.56006,0.55995 -6.52772,-0.14032 -9.52701,-2.19175 -0.9342,-0.63901 -4.72405,-2.99457 -4.45683,-4.62396 l 0.021,-0.12268 c 0,0 2.04376,-3.733609 3.4979,-5.091845 2.17711,-2.033514 4.79072,-3.614865 7.47088,-4.2464 1.68002,-0.39589 5.70675,0.173272 8.27249,1.335346 2.15562,0.976368 5.65714,4.588357 5.65714,4.588357" />
    </g>
    <!-- Eye pupils -->
    <g fill="black" stroke="black" stroke-width="1" stroke-linecap="round" stroke-linejoin="round">
        <!-- Left -->
        <path d="m 132.72473,90.89404 c 0,0 -3.76375,2.553047 -4.4601,4.562637 -0.83453,2.408379 -0.45225,5.391963 0.81591,7.602953 0.99419,1.73333 4.8219,3.56157 4.8219,3.56157 0,0 3.07658,-2.60741 3.70064,-4.42658 0.77905,-2.270993 0.76833,-5.026208 -0.25479,-7.198209 -0.87801,-1.863947 -4.62356,-4.102371 -4.62356,-4.102371 z" />
        <!-- Right -->
        <path d="m 173.34837,90.607077 c 0,0 -3.20283,2.458966 -3.80987,4.266377 -0.80953,2.410316 -0.54718,5.342146 0.61632,7.602946 0.67874,1.31887 3.40025,2.87041 3.40025,2.87041 0,0 3.51655,-2.16131 4.32392,-3.935 0.91159,-2.002628 1.0178,-4.579872 0.14439,-6.599436 -0.83201,-1.923832 -4.67501,-4.205297 -4.67501,-4.205297 z" />
    </g>
    <!-- Eye flickers -->
    <g fill="white">
        <!-- Left -->
        <ellipse cx="134.3063" cy="98.733597" rx="0.63651097" ry="4.4970665" />
        <!-- Right -->
        <ellipse cx="174.93315" cy="98.447533" rx="0.71074128" ry="4.4022851" />
    </g>
</svg>